<?xml version="1.0" encoding="iso-8859-1"?>
<!-- Generator: Adobe Illustrator 19.0.0, SVG Export Plug-In . SVG Version: 6.00 Build 0)  -->
<svg version="1.1" id="Layer_1" xmlns="http://www.w3.org/2000/svg" xmlns:xlink="http://www.w3.org/1999/xlink" x="0px" y="0px"
	 viewBox="0 0 491.52 491.52" style="enable-background:new 0 0 491.52 491.52;" xml:space="preserve">
<g>
	<g>
		<g>
			<path d="M0,84.623V225.28h225.28V0H84.623C37.97,0,0,37.97,0,84.623z M133.12,81.92c28.283,0,51.2,22.917,51.2,51.2
				c0,28.283-22.917,51.2-51.2,51.2c-28.283,0-51.2-22.917-51.2-51.2C81.92,104.837,104.837,81.92,133.12,81.92z"/>
			<path d="M406.897,0H266.24v225.28h225.28V84.623C491.52,37.97,453.55,0,406.897,0z M358.4,194.56l-51.2-51.2l51.2-51.2l51.2,51.2
				L358.4,194.56z"/>
			<path d="M0,406.897c0,46.653,37.97,84.623,84.623,84.623H225.28V266.24H0V406.897z M133.12,286.72l51.2,122.88H81.92
				L133.12,286.72z"/>
			<path d="M266.24,491.514h140.657c46.653,0,84.623-37.949,84.623-84.623V266.234H266.24V491.514z M337.49,339.306l17.019-34.488
				l17.019,34.488l38.072,5.53l-27.546,26.849l6.513,37.909l-34.058-17.899l-34.058,17.899l6.513-37.909l-27.546-26.849
				L337.49,339.306z"/>
		</g>
	</g>
</g>
<g>
</g>
<g>
</g>
<g>
</g>
<g>
</g>
<g>
</g>
<g>
</g>
<g>
</g>
<g>
</g>
<g>
</g>
<g>
</g>
<g>
</g>
<g>
</g>
<g>
</g>
<g>
</g>
<g>
</g>
</svg>
